<svg width="355" height="3592" viewBox="0 0 355 3592" fill="none" xmlns="http://www.w3.org/2000/svg">
<g opacity="0.15">
<circle cx="176.5" cy="224.5" r="176.5" fill="white"/>
<circle cx="189.033" cy="72.0207" r="5.22189" fill="#D9D9D9"/>
<circle cx="268.405" cy="115.884" r="5.22189" fill="#D9D9D9"/>
<circle cx="101.305" cy="130.506" r="5.22189" fill="#D9D9D9"/>
<circle cx="101.305" cy="130.506" r="7.31065" fill="#D9D9D9"/>
<circle cx="280.938" cy="176.459" r="7.31065" fill="#D9D9D9"/>
<circle cx="316.447" cy="266.275" r="7.31065" fill="#D9D9D9"/>
<circle cx="63.7071" cy="168.104" r="9.39941" fill="#D9D9D9"/>
<circle cx="105.482" cy="331.027" r="11.4882" fill="#D9D9D9"/>
<circle cx="237.074" cy="247.476" r="11.4882" fill="#D9D9D9"/>
<circle cx="278.849" cy="324.76" r="11.4882" fill="#D9D9D9"/>
<circle cx="72.0621" cy="285.074" r="5.22189" fill="#D9D9D9"/>
<circle cx="220.364" cy="318.494" r="5.22189" fill="#D9D9D9"/>
<circle cx="209.92" cy="143.038" r="15.6657" fill="#D9D9D9"/>
<circle cx="153.524" cy="214.056" r="21.9319" fill="#D9D9D9"/>
<circle cx="324.802" cy="172.281" r="3.13314" fill="#D9D9D9"/>
</g>
<g opacity="0.15">
<circle cx="176.5" cy="675.5" r="176.5" fill="white"/>
<circle cx="189.033" cy="524.021" r="5.22189" fill="#D9D9D9"/>
<circle cx="268.405" cy="567.884" r="5.22189" fill="#D9D9D9"/>
<circle cx="101.305" cy="582.506" r="5.22189" fill="#D9D9D9"/>
<circle cx="101.305" cy="582.506" r="7.31065" fill="#D9D9D9"/>
<circle cx="280.938" cy="628.459" r="7.31065" fill="#D9D9D9"/>
<circle cx="316.447" cy="718.275" r="7.31065" fill="#D9D9D9"/>
<circle cx="63.7071" cy="620.104" r="9.39941" fill="#D9D9D9"/>
<circle cx="105.482" cy="783.027" r="11.4882" fill="#D9D9D9"/>
<circle cx="237.074" cy="699.476" r="11.4882" fill="#D9D9D9"/>
<circle cx="278.849" cy="776.76" r="11.4882" fill="#D9D9D9"/>
<circle cx="72.0621" cy="737.074" r="5.22189" fill="#D9D9D9"/>
<circle cx="220.364" cy="770.494" r="5.22189" fill="#D9D9D9"/>
<circle cx="209.92" cy="595.038" r="15.6657" fill="#D9D9D9"/>
<circle cx="153.524" cy="666.056" r="21.9319" fill="#D9D9D9"/>
<circle cx="324.802" cy="624.281" r="3.13314" fill="#D9D9D9"/>
</g>
<g opacity="0.15">
<circle cx="176.5" cy="1123.5" r="176.5" fill="white"/>
<circle cx="189.033" cy="972.021" r="5.22189" fill="#D9D9D9"/>
<circle cx="268.405" cy="1015.88" r="5.22189" fill="#D9D9D9"/>
<circle cx="101.305" cy="1030.51" r="5.22189" fill="#D9D9D9"/>
<circle cx="101.305" cy="1030.51" r="7.31065" fill="#D9D9D9"/>
<circle cx="280.938" cy="1076.46" r="7.31065" fill="#D9D9D9"/>
<circle cx="316.447" cy="1166.28" r="7.31065" fill="#D9D9D9"/>
<circle cx="63.7071" cy="1068.1" r="9.39941" fill="#D9D9D9"/>
<circle cx="105.482" cy="1231.03" r="11.4882" fill="#D9D9D9"/>
<circle cx="237.074" cy="1147.48" r="11.4882" fill="#D9D9D9"/>
<circle cx="278.849" cy="1224.76" r="11.4882" fill="#D9D9D9"/>
<circle cx="72.0621" cy="1185.07" r="5.22189" fill="#D9D9D9"/>
<circle cx="220.364" cy="1218.49" r="5.22189" fill="#D9D9D9"/>
<circle cx="209.92" cy="1043.04" r="15.6657" fill="#D9D9D9"/>
<circle cx="153.524" cy="1114.06" r="21.9319" fill="#D9D9D9"/>
<circle cx="324.802" cy="1072.28" r="3.13314" fill="#D9D9D9"/>
</g>
<g opacity="0.15">
<circle cx="176.5" cy="2021.5" r="176.5" fill="white"/>
<circle cx="189.033" cy="1870.02" r="5.22189" fill="#D9D9D9"/>
<circle cx="268.405" cy="1913.88" r="5.22189" fill="#D9D9D9"/>
<circle cx="101.305" cy="1928.51" r="5.22189" fill="#D9D9D9"/>
<circle cx="101.305" cy="1928.51" r="7.31065" fill="#D9D9D9"/>
<circle cx="280.938" cy="1974.46" r="7.31065" fill="#D9D9D9"/>
<circle cx="316.447" cy="2064.27" r="7.31065" fill="#D9D9D9"/>
<circle cx="63.7071" cy="1966.1" r="9.39941" fill="#D9D9D9"/>
<circle cx="105.482" cy="2129.03" r="11.4882" fill="#D9D9D9"/>
<circle cx="237.074" cy="2045.48" r="11.4882" fill="#D9D9D9"/>
<circle cx="278.849" cy="2122.76" r="11.4882" fill="#D9D9D9"/>
<circle cx="72.0621" cy="2083.07" r="5.22189" fill="#D9D9D9"/>
<circle cx="220.364" cy="2116.49" r="5.22189" fill="#D9D9D9"/>
<circle cx="209.92" cy="1941.04" r="15.6657" fill="#D9D9D9"/>
<circle cx="153.524" cy="2012.06" r="21.9319" fill="#D9D9D9"/>
<circle cx="324.802" cy="1970.28" r="3.13314" fill="#D9D9D9"/>
</g>
<g opacity="0.15">
<circle cx="176.5" cy="2469.5" r="176.5" fill="white"/>
<circle cx="189.033" cy="2318.02" r="5.22189" fill="#D9D9D9"/>
<circle cx="268.405" cy="2361.88" r="5.22189" fill="#D9D9D9"/>
<circle cx="101.305" cy="2376.51" r="5.22189" fill="#D9D9D9"/>
<circle cx="101.305" cy="2376.51" r="7.31065" fill="#D9D9D9"/>
<circle cx="280.938" cy="2422.46" r="7.31065" fill="#D9D9D9"/>
<circle cx="316.447" cy="2512.27" r="7.31065" fill="#D9D9D9"/>
<circle cx="63.7071" cy="2414.1" r="9.39941" fill="#D9D9D9"/>
<circle cx="105.482" cy="2577.03" r="11.4882" fill="#D9D9D9"/>
<circle cx="237.074" cy="2493.48" r="11.4882" fill="#D9D9D9"/>
<circle cx="278.849" cy="2570.76" r="11.4882" fill="#D9D9D9"/>
<circle cx="72.0621" cy="2531.07" r="5.22189" fill="#D9D9D9"/>
<circle cx="220.364" cy="2564.49" r="5.22189" fill="#D9D9D9"/>
<circle cx="209.92" cy="2389.04" r="15.6657" fill="#D9D9D9"/>
<circle cx="153.524" cy="2460.06" r="21.9319" fill="#D9D9D9"/>
<circle cx="324.802" cy="2418.28" r="3.13314" fill="#D9D9D9"/>
</g>
<g opacity="0.15">
<circle cx="177.5" cy="2918.5" r="176.5" fill="white"/>
<circle cx="190.033" cy="2767.02" r="5.22189" fill="#D9D9D9"/>
<circle cx="269.405" cy="2810.88" r="5.22189" fill="#D9D9D9"/>
<circle cx="102.305" cy="2825.51" r="5.22189" fill="#D9D9D9"/>
<circle cx="102.305" cy="2825.51" r="7.31065" fill="#D9D9D9"/>
<circle cx="281.938" cy="2871.46" r="7.31065" fill="#D9D9D9"/>
<circle cx="317.447" cy="2961.27" r="7.31065" fill="#D9D9D9"/>
<circle cx="64.7071" cy="2863.1" r="9.39941" fill="#D9D9D9"/>
<circle cx="106.482" cy="3026.03" r="11.4882" fill="#D9D9D9"/>
<circle cx="238.074" cy="2942.48" r="11.4882" fill="#D9D9D9"/>
<circle cx="279.849" cy="3019.76" r="11.4882" fill="#D9D9D9"/>
<circle cx="73.0621" cy="2980.07" r="5.22189" fill="#D9D9D9"/>
<circle cx="221.364" cy="3013.49" r="5.22189" fill="#D9D9D9"/>
<circle cx="210.92" cy="2838.04" r="15.6657" fill="#D9D9D9"/>
<circle cx="154.524" cy="2909.06" r="21.9319" fill="#D9D9D9"/>
<circle cx="325.802" cy="2867.28" r="3.13314" fill="#D9D9D9"/>
</g>
<path fill-rule="evenodd" clip-rule="evenodd" d="M140 397.164C219.416 379.934 278.902 309.253 278.902 224.677C278.902 140.102 219.416 69.4201 140 52.1903C152.116 49.5618 164.695 48.1772 177.598 48.1772C275.076 48.1772 354.098 127.199 354.098 224.677C354.098 322.155 275.076 401.177 177.598 401.177C164.695 401.177 152.116 399.793 140 397.164Z" fill="white"/>
<circle cx="269.503" cy="116.062" r="5.22189" fill="#D9D9D9"/>
<circle cx="286.213" cy="170.37" r="7.31065" fill="#D9D9D9"/>
<circle cx="317.544" cy="266.452" r="7.31065" fill="#D9D9D9"/>
<circle cx="279.947" cy="324.937" r="11.4882" fill="#D9D9D9"/>
<circle cx="325.899" cy="172.458" r="3.13314" fill="#D9D9D9"/>
<path fill-rule="evenodd" clip-rule="evenodd" d="M176 852.174C176.348 852.176 176.696 852.177 177.044 852.177C274.523 852.177 353.544 773.155 353.544 675.677C353.544 578.199 274.523 499.177 177.044 499.177C176.696 499.177 176.348 499.178 176 499.18V852.174Z" fill="white"/>
<circle cx="189.577" cy="523.198" r="5.22189" fill="#D9D9D9"/>
<circle cx="268.95" cy="567.062" r="5.22189" fill="#D9D9D9"/>
<circle cx="281.482" cy="627.636" r="7.31065" fill="#D9D9D9"/>
<circle cx="316.991" cy="717.452" r="7.31065" fill="#D9D9D9"/>
<circle cx="237.618" cy="698.654" r="11.4882" fill="#D9D9D9"/>
<circle cx="279.393" cy="775.937" r="11.4882" fill="#D9D9D9"/>
<circle cx="220.908" cy="769.671" r="5.22189" fill="#D9D9D9"/>
<circle cx="210.465" cy="594.215" r="15.6657" fill="#D9D9D9"/>
<circle cx="325.346" cy="623.458" r="3.13314" fill="#D9D9D9"/>
<path fill-rule="evenodd" clip-rule="evenodd" d="M208.213 1298C291.26 1283.64 354.426 1211.24 354.426 1124.09C354.426 1036.94 291.26 964.539 208.213 950.177C125.166 964.539 62 1036.94 62 1124.09C62 1211.24 125.166 1283.64 208.213 1298Z" fill="white"/>
<circle cx="190.458" cy="971.61" r="5.22189" fill="#D9D9D9"/>
<circle cx="269.831" cy="1015.47" r="5.22189" fill="#D9D9D9"/>
<circle cx="102.731" cy="1030.09" r="5.22189" fill="#D9D9D9"/>
<circle cx="102.731" cy="1030.09" r="7.31065" fill="#D9D9D9"/>
<circle cx="282.364" cy="1076.05" r="7.31065" fill="#D9D9D9"/>
<circle cx="317.873" cy="1165.86" r="7.31065" fill="#D9D9D9"/>
<circle cx="238.5" cy="1147.06" r="11.4882" fill="#D9D9D9"/>
<circle cx="280.275" cy="1224.35" r="11.4882" fill="#D9D9D9"/>
<circle cx="221.79" cy="1218.08" r="5.22189" fill="#D9D9D9"/>
<circle cx="140.328" cy="1215.99" r="7.31065" fill="#D9D9D9"/>
<circle cx="211.346" cy="1042.63" r="15.6657" fill="#D9D9D9"/>
<circle cx="154.95" cy="1113.64" r="21.9319" fill="#D9D9D9"/>
<circle cx="326.228" cy="1071.87" r="3.13314" fill="#D9D9D9"/>
<circle cx="177.5" cy="1572.5" r="176.5" fill="white"/>
<circle cx="190.033" cy="1420.02" r="5.22189" fill="#D9D9D9"/>
<circle cx="269.405" cy="1463.88" r="5.22189" fill="#D9D9D9"/>
<circle cx="102.305" cy="1478.51" r="5.22189" fill="#D9D9D9"/>
<circle cx="102.305" cy="1478.51" r="7.31065" fill="#D9D9D9"/>
<circle cx="281.938" cy="1524.46" r="7.31065" fill="#D9D9D9"/>
<circle cx="317.447" cy="1614.28" r="7.31065" fill="#D9D9D9"/>
<circle cx="64.7071" cy="1516.1" r="9.39941" fill="#D9D9D9"/>
<circle cx="106.482" cy="1679.03" r="11.4882" fill="#D9D9D9"/>
<circle cx="238.074" cy="1595.48" r="11.4882" fill="#D9D9D9"/>
<circle cx="279.849" cy="1672.76" r="11.4882" fill="#D9D9D9"/>
<circle cx="73.0621" cy="1633.07" r="5.22189" fill="#D9D9D9"/>
<circle cx="221.364" cy="1666.49" r="5.22189" fill="#D9D9D9"/>
<circle cx="210.92" cy="1491.04" r="15.6657" fill="#D9D9D9"/>
<circle cx="154.524" cy="1562.06" r="21.9319" fill="#D9D9D9"/>
<circle cx="325.802" cy="1520.28" r="3.13314" fill="#D9D9D9"/>
<path fill-rule="evenodd" clip-rule="evenodd" d="M146.787 1847C229.834 1861.36 293 1933.76 293 2020.91C293 2108.06 229.834 2180.46 146.787 2194.82C63.7396 2180.46 0.574043 2108.06 0.574051 2020.91C0.574058 1933.76 63.7396 1861.36 146.787 1847Z" fill="white"/>
<circle cx="164.541" cy="2173.39" r="5.22189" transform="rotate(-180 164.541 2173.39)" fill="#D9D9D9"/>
<circle cx="85.1686" cy="2129.53" r="5.22189" transform="rotate(-180 85.1686 2129.53)" fill="#D9D9D9"/>
<circle cx="252.269" cy="2114.91" r="5.22189" transform="rotate(-180 252.269 2114.91)" fill="#D9D9D9"/>
<circle cx="252.269" cy="2114.91" r="7.31065" transform="rotate(-180 252.269 2114.91)" fill="#D9D9D9"/>
<circle cx="72.6361" cy="2068.95" r="7.31065" transform="rotate(-180 72.6361 2068.95)" fill="#D9D9D9"/>
<circle cx="37.1272" cy="1979.14" r="7.31065" transform="rotate(-180 37.1272 1979.14)" fill="#D9D9D9"/>
<circle cx="116.5" cy="1997.94" r="11.4882" transform="rotate(-180 116.5 1997.94)" fill="#D9D9D9"/>
<circle cx="74.7249" cy="1920.65" r="11.4882" transform="rotate(-180 74.7249 1920.65)" fill="#D9D9D9"/>
<circle cx="133.21" cy="1926.92" r="5.22189" transform="rotate(-180 133.21 1926.92)" fill="#D9D9D9"/>
<circle cx="214.672" cy="1929.01" r="7.31065" transform="rotate(-180 214.672 1929.01)" fill="#D9D9D9"/>
<circle cx="143.654" cy="2102.37" r="15.6657" transform="rotate(-180 143.654 2102.37)" fill="#D9D9D9"/>
<circle cx="200.05" cy="2031.36" r="21.9319" transform="rotate(-180 200.05 2031.36)" fill="#D9D9D9"/>
<circle cx="28.7723" cy="2073.13" r="3.13314" transform="rotate(-180 28.7723 2073.13)" fill="#D9D9D9"/>
<path fill-rule="evenodd" clip-rule="evenodd" d="M179 2292.83C178.652 2292.82 178.304 2292.82 177.956 2292.82C80.4774 2292.82 1.45568 2371.84 1.45567 2469.32C1.45566 2566.8 80.4774 2645.82 177.956 2645.82C178.304 2645.82 178.652 2645.82 179 2645.82L179 2292.83Z" fill="white"/>
<circle cx="165.423" cy="2621.8" r="5.22189" transform="rotate(-180 165.423 2621.8)" fill="#D9D9D9"/>
<circle cx="86.0503" cy="2577.94" r="5.22189" transform="rotate(-180 86.0503 2577.94)" fill="#D9D9D9"/>
<circle cx="73.5177" cy="2517.36" r="7.31065" transform="rotate(-180 73.5177 2517.36)" fill="#D9D9D9"/>
<circle cx="38.0088" cy="2427.55" r="7.31065" transform="rotate(-180 38.0088 2427.55)" fill="#D9D9D9"/>
<circle cx="117.382" cy="2446.35" r="11.4882" transform="rotate(-180 117.382 2446.35)" fill="#D9D9D9"/>
<circle cx="75.6064" cy="2369.06" r="11.4882" transform="rotate(-180 75.6064 2369.06)" fill="#D9D9D9"/>
<circle cx="134.092" cy="2375.33" r="5.22189" transform="rotate(-180 134.092 2375.33)" fill="#D9D9D9"/>
<circle cx="144.535" cy="2550.78" r="15.6657" transform="rotate(-180 144.535 2550.78)" fill="#D9D9D9"/>
<circle cx="29.6539" cy="2521.54" r="3.13314" transform="rotate(-180 29.6539 2521.54)" fill="#D9D9D9"/>
<path fill-rule="evenodd" clip-rule="evenodd" d="M177.402 2743.82C79.9241 2743.82 0.902413 2822.84 0.902405 2920.32C0.902396 3017.8 79.9241 3096.82 177.402 3096.82C190.305 3096.82 202.884 3095.44 215 3092.81C135.584 3075.58 76.0976 3004.9 76.0977 2920.32C76.0977 2835.75 135.584 2765.07 215 2747.84C202.884 2745.21 190.305 2743.82 177.402 2743.82Z" fill="white"/>
<circle cx="85.4971" cy="3028.94" r="5.22189" transform="rotate(-180 85.4971 3028.94)" fill="#D9D9D9"/>
<circle cx="68.787" cy="2974.63" r="7.31065" transform="rotate(-180 68.787 2974.63)" fill="#D9D9D9"/>
<circle cx="37.4557" cy="2878.55" r="7.31065" transform="rotate(-180 37.4557 2878.55)" fill="#D9D9D9"/>
<circle cx="75.0533" cy="2820.06" r="11.4882" transform="rotate(-180 75.0533 2820.06)" fill="#D9D9D9"/>
<circle cx="29.1006" cy="2972.54" r="3.13314" transform="rotate(-180 29.1006 2972.54)" fill="#D9D9D9"/>
<g opacity="0.15">
<circle cx="177.5" cy="3367.5" r="176.5" fill="white"/>
<circle cx="190.033" cy="3216.02" r="5.22189" fill="#D9D9D9"/>
<circle cx="269.405" cy="3259.88" r="5.22189" fill="#D9D9D9"/>
<circle cx="102.305" cy="3274.51" r="5.22189" fill="#D9D9D9"/>
<circle cx="102.305" cy="3274.51" r="7.31065" fill="#D9D9D9"/>
<circle cx="281.938" cy="3320.46" r="7.31065" fill="#D9D9D9"/>
<circle cx="317.447" cy="3410.27" r="7.31065" fill="#D9D9D9"/>
<circle cx="64.7071" cy="3312.1" r="9.39941" fill="#D9D9D9"/>
<circle cx="106.482" cy="3475.03" r="11.4882" fill="#D9D9D9"/>
<circle cx="238.074" cy="3391.48" r="11.4882" fill="#D9D9D9"/>
<circle cx="279.849" cy="3468.76" r="11.4882" fill="#D9D9D9"/>
<circle cx="73.0621" cy="3429.07" r="5.22189" fill="#D9D9D9"/>
<circle cx="221.364" cy="3462.49" r="5.22189" fill="#D9D9D9"/>
<circle cx="210.92" cy="3287.04" r="15.6657" fill="#D9D9D9"/>
<circle cx="154.524" cy="3358.06" r="21.9319" fill="#D9D9D9"/>
<circle cx="325.802" cy="3316.28" r="3.13314" fill="#D9D9D9"/>
</g>
</svg>
