<svg width="2787" height="353" viewBox="0 0 2787 353" fill="none" xmlns="http://www.w3.org/2000/svg">
<circle cx="1393.5" cy="176.5" r="176.5" fill="white"/>
<circle cx="1406.03" cy="24.0207" r="5.22189" fill="#D9D9D9"/>
<circle cx="1485.41" cy="67.8846" r="5.22189" fill="#D9D9D9"/>
<circle cx="1318.3" cy="82.506" r="5.22189" fill="#D9D9D9"/>
<circle cx="1318.3" cy="82.5059" r="7.31065" fill="#D9D9D9"/>
<circle cx="1497.94" cy="128.459" r="7.31065" fill="#D9D9D9"/>
<circle cx="1533.45" cy="218.275" r="7.31065" fill="#D9D9D9"/>
<circle cx="1280.71" cy="120.104" r="9.39941" fill="#D9D9D9"/>
<circle cx="1322.48" cy="283.027" r="11.4882" fill="#D9D9D9"/>
<circle cx="1454.07" cy="199.476" r="11.4882" fill="#D9D9D9"/>
<circle cx="1495.85" cy="276.76" r="11.4882" fill="#D9D9D9"/>
<circle cx="1289.06" cy="237.074" r="5.22189" fill="#D9D9D9"/>
<circle cx="1437.36" cy="270.494" r="5.22189" fill="#D9D9D9"/>
<circle cx="1426.92" cy="95.0385" r="15.6657" fill="#D9D9D9"/>
<circle cx="1370.52" cy="166.056" r="21.9319" fill="#D9D9D9"/>
<circle cx="1541.8" cy="124.281" r="3.13314" fill="#D9D9D9"/>
<path fill-rule="evenodd" clip-rule="evenodd" d="M893.213 350.411C976.26 336.05 1039.43 263.651 1039.43 176.5C1039.43 89.3485 976.26 16.9502 893.213 2.58862C810.166 16.9502 747 89.3485 747 176.5C747 263.651 810.166 336.05 893.213 350.411Z" fill="white"/>
<circle cx="875.458" cy="24.0207" r="5.22189" fill="#D9D9D9"/>
<circle cx="954.831" cy="67.8846" r="5.22189" fill="#D9D9D9"/>
<circle cx="787.731" cy="82.506" r="5.22189" fill="#D9D9D9"/>
<circle cx="787.731" cy="82.5059" r="7.31065" fill="#D9D9D9"/>
<circle cx="967.364" cy="128.459" r="7.31065" fill="#D9D9D9"/>
<circle cx="1002.87" cy="218.275" r="7.31065" fill="#D9D9D9"/>
<circle cx="923.5" cy="199.476" r="11.4882" fill="#D9D9D9"/>
<circle cx="965.275" cy="276.76" r="11.4882" fill="#D9D9D9"/>
<circle cx="906.79" cy="270.494" r="5.22189" fill="#D9D9D9"/>
<circle cx="825.328" cy="268.405" r="7.31065" fill="#D9D9D9"/>
<circle cx="896.346" cy="95.0385" r="15.6657" fill="#D9D9D9"/>
<circle cx="839.95" cy="166.056" r="21.9319" fill="#D9D9D9"/>
<circle cx="1011.23" cy="124.281" r="3.13314" fill="#D9D9D9"/>
<path fill-rule="evenodd" clip-rule="evenodd" d="M1893.79 2.58864C1976.83 16.9502 2040 89.3486 2040 176.5C2040 263.651 1976.83 336.05 1893.79 350.411C1810.74 336.05 1747.57 263.651 1747.57 176.5C1747.57 89.3485 1810.74 16.9502 1893.79 2.58864Z" fill="white"/>
<circle cx="1911.54" cy="328.979" r="5.22189" transform="rotate(-180 1911.54 328.979)" fill="#D9D9D9"/>
<circle cx="1832.17" cy="285.115" r="5.22189" transform="rotate(-180 1832.17 285.115)" fill="#D9D9D9"/>
<circle cx="1999.27" cy="270.494" r="5.22189" transform="rotate(-180 1999.27 270.494)" fill="#D9D9D9"/>
<circle cx="1999.27" cy="270.494" r="7.31065" transform="rotate(-180 1999.27 270.494)" fill="#D9D9D9"/>
<circle cx="1819.64" cy="224.541" r="7.31065" transform="rotate(-180 1819.64 224.541)" fill="#D9D9D9"/>
<circle cx="1784.13" cy="134.725" r="7.31065" transform="rotate(-180 1784.13 134.725)" fill="#D9D9D9"/>
<circle cx="1863.5" cy="153.524" r="11.4882" transform="rotate(-180 1863.5 153.524)" fill="#D9D9D9"/>
<circle cx="1821.72" cy="76.2396" r="11.4882" transform="rotate(-180 1821.72 76.2396)" fill="#D9D9D9"/>
<circle cx="1880.21" cy="82.5059" r="5.22189" transform="rotate(-180 1880.21 82.5059)" fill="#D9D9D9"/>
<circle cx="1961.67" cy="84.5946" r="7.31065" transform="rotate(-180 1961.67 84.5946)" fill="#D9D9D9"/>
<circle cx="1890.65" cy="257.961" r="15.6657" transform="rotate(-180 1890.65 257.961)" fill="#D9D9D9"/>
<circle cx="1947.05" cy="186.944" r="21.9319" transform="rotate(-180 1947.05 186.944)" fill="#D9D9D9"/>
<circle cx="1775.77" cy="228.719" r="3.13314" transform="rotate(-180 1775.77 228.719)" fill="#D9D9D9"/>
<path fill-rule="evenodd" clip-rule="evenodd" d="M392 352.997C392.348 352.999 392.696 353 393.044 353C490.523 353 569.544 273.978 569.544 176.5C569.544 79.0217 490.523 0 393.044 0C392.696 0 392.348 0.00100923 392 0.00302492V352.997Z" fill="white"/>
<circle cx="405.577" cy="24.0207" r="5.22189" fill="#D9D9D9"/>
<circle cx="484.95" cy="67.8846" r="5.22189" fill="#D9D9D9"/>
<circle cx="497.482" cy="128.459" r="7.31065" fill="#D9D9D9"/>
<circle cx="532.991" cy="218.275" r="7.31065" fill="#D9D9D9"/>
<circle cx="453.618" cy="199.476" r="11.4882" fill="#D9D9D9"/>
<circle cx="495.393" cy="276.76" r="11.4882" fill="#D9D9D9"/>
<circle cx="436.908" cy="270.494" r="5.22189" fill="#D9D9D9"/>
<circle cx="426.465" cy="95.0385" r="15.6657" fill="#D9D9D9"/>
<circle cx="541.346" cy="124.281" r="3.13314" fill="#D9D9D9"/>
<path fill-rule="evenodd" clip-rule="evenodd" d="M2395 0.00303793C2394.65 0.00102374 2394.3 1.66323e-05 2393.96 1.66018e-05C2296.48 8.08002e-06 2217.46 79.0217 2217.46 176.5C2217.46 273.978 2296.48 353 2393.96 353C2394.3 353 2394.65 352.999 2395 352.997L2395 0.00303793Z" fill="white"/>
<circle cx="2381.42" cy="328.979" r="5.22189" transform="rotate(-180 2381.42 328.979)" fill="#D9D9D9"/>
<circle cx="2302.05" cy="285.115" r="5.22189" transform="rotate(-180 2302.05 285.115)" fill="#D9D9D9"/>
<circle cx="2289.52" cy="224.541" r="7.31065" transform="rotate(-180 2289.52 224.541)" fill="#D9D9D9"/>
<circle cx="2254.01" cy="134.725" r="7.31065" transform="rotate(-180 2254.01 134.725)" fill="#D9D9D9"/>
<circle cx="2333.38" cy="153.524" r="11.4882" transform="rotate(-180 2333.38 153.524)" fill="#D9D9D9"/>
<circle cx="2291.61" cy="76.2396" r="11.4882" transform="rotate(-180 2291.61 76.2396)" fill="#D9D9D9"/>
<circle cx="2350.09" cy="82.5059" r="5.22189" transform="rotate(-180 2350.09 82.5059)" fill="#D9D9D9"/>
<circle cx="2360.54" cy="257.961" r="15.6657" transform="rotate(-180 2360.54 257.961)" fill="#D9D9D9"/>
<circle cx="2245.65" cy="228.719" r="3.13314" transform="rotate(-180 2245.65 228.719)" fill="#D9D9D9"/>
<path fill-rule="evenodd" clip-rule="evenodd" d="M1.76376e-06 348.987C79.4156 331.757 138.902 261.075 138.902 176.5C138.902 91.9245 79.4156 21.2428 0 4.01306C12.1155 1.3845 24.6949 0 37.5976 0C135.076 0 214.098 79.0217 214.098 176.5C214.098 273.978 135.076 353 37.5976 353C24.6949 353 12.1155 351.615 1.76376e-06 348.987Z" fill="white"/>
<circle cx="129.503" cy="67.8846" r="5.22189" fill="#D9D9D9"/>
<circle cx="146.213" cy="122.192" r="7.31065" fill="#D9D9D9"/>
<circle cx="177.544" cy="218.275" r="7.31065" fill="#D9D9D9"/>
<circle cx="139.947" cy="276.76" r="11.4882" fill="#D9D9D9"/>
<circle cx="185.899" cy="124.281" r="3.13314" fill="#D9D9D9"/>
<path fill-rule="evenodd" clip-rule="evenodd" d="M2749.4 4.07282e-05C2651.92 3.22064e-05 2572.9 79.0218 2572.9 176.5C2572.9 273.978 2651.92 353 2749.4 353C2762.31 353 2774.88 351.615 2787 348.987C2707.58 331.757 2648.1 261.075 2648.1 176.5C2648.1 91.9245 2707.58 21.2429 2787 4.01308C2774.88 1.38453 2762.31 4.18562e-05 2749.4 4.07282e-05Z" fill="white"/>
<circle cx="2657.5" cy="285.115" r="5.22189" transform="rotate(-180 2657.5 285.115)" fill="#D9D9D9"/>
<circle cx="2640.79" cy="230.808" r="7.31065" transform="rotate(-180 2640.79 230.808)" fill="#D9D9D9"/>
<circle cx="2609.46" cy="134.725" r="7.31065" transform="rotate(-180 2609.46 134.725)" fill="#D9D9D9"/>
<circle cx="2647.05" cy="76.2396" r="11.4882" transform="rotate(-180 2647.05 76.2396)" fill="#D9D9D9"/>
<circle cx="2601.1" cy="228.719" r="3.13314" transform="rotate(-180 2601.1 228.719)" fill="#D9D9D9"/>
</svg>
