<svg width="355" height="4041" viewBox="0 0 355 4041" fill="none" xmlns="http://www.w3.org/2000/svg">
<g opacity="0.15">
<circle cx="176.5" cy="673.5" r="176.5" fill="white"/>
<circle cx="189.033" cy="521.021" r="5.22189" fill="#D9D9D9"/>
<circle cx="268.405" cy="564.884" r="5.22189" fill="#D9D9D9"/>
<circle cx="101.305" cy="579.506" r="5.22189" fill="#D9D9D9"/>
<circle cx="101.305" cy="579.506" r="7.31065" fill="#D9D9D9"/>
<circle cx="280.938" cy="625.459" r="7.31065" fill="#D9D9D9"/>
<circle cx="316.447" cy="715.275" r="7.31065" fill="#D9D9D9"/>
<circle cx="63.7071" cy="617.104" r="9.39941" fill="#D9D9D9"/>
<circle cx="105.482" cy="780.027" r="11.4882" fill="#D9D9D9"/>
<circle cx="237.074" cy="696.476" r="11.4882" fill="#D9D9D9"/>
<circle cx="278.849" cy="773.76" r="11.4882" fill="#D9D9D9"/>
<circle cx="72.0621" cy="734.074" r="5.22189" fill="#D9D9D9"/>
<circle cx="220.364" cy="767.494" r="5.22189" fill="#D9D9D9"/>
<circle cx="209.92" cy="592.038" r="15.6657" fill="#D9D9D9"/>
<circle cx="153.524" cy="663.056" r="21.9319" fill="#D9D9D9"/>
<circle cx="324.802" cy="621.281" r="3.13314" fill="#D9D9D9"/>
</g>
<g opacity="0.15">
<circle cx="176.5" cy="1124.5" r="176.5" fill="white"/>
<circle cx="189.033" cy="973.021" r="5.22189" fill="#D9D9D9"/>
<circle cx="268.405" cy="1016.88" r="5.22189" fill="#D9D9D9"/>
<circle cx="101.305" cy="1031.51" r="5.22189" fill="#D9D9D9"/>
<circle cx="101.305" cy="1031.51" r="7.31065" fill="#D9D9D9"/>
<circle cx="280.938" cy="1077.46" r="7.31065" fill="#D9D9D9"/>
<circle cx="316.447" cy="1167.28" r="7.31065" fill="#D9D9D9"/>
<circle cx="63.7071" cy="1069.1" r="9.39941" fill="#D9D9D9"/>
<circle cx="105.482" cy="1232.03" r="11.4882" fill="#D9D9D9"/>
<circle cx="237.074" cy="1148.48" r="11.4882" fill="#D9D9D9"/>
<circle cx="278.849" cy="1225.76" r="11.4882" fill="#D9D9D9"/>
<circle cx="72.0621" cy="1186.07" r="5.22189" fill="#D9D9D9"/>
<circle cx="220.364" cy="1219.49" r="5.22189" fill="#D9D9D9"/>
<circle cx="209.92" cy="1044.04" r="15.6657" fill="#D9D9D9"/>
<circle cx="153.524" cy="1115.06" r="21.9319" fill="#D9D9D9"/>
<circle cx="324.802" cy="1073.28" r="3.13314" fill="#D9D9D9"/>
</g>
<g opacity="0.15">
<circle cx="176.5" cy="1572.5" r="176.5" fill="white"/>
<circle cx="189.033" cy="1421.02" r="5.22189" fill="#D9D9D9"/>
<circle cx="268.405" cy="1464.88" r="5.22189" fill="#D9D9D9"/>
<circle cx="101.305" cy="1479.51" r="5.22189" fill="#D9D9D9"/>
<circle cx="101.305" cy="1479.51" r="7.31065" fill="#D9D9D9"/>
<circle cx="280.938" cy="1525.46" r="7.31065" fill="#D9D9D9"/>
<circle cx="316.447" cy="1615.28" r="7.31065" fill="#D9D9D9"/>
<circle cx="63.7071" cy="1517.1" r="9.39941" fill="#D9D9D9"/>
<circle cx="105.482" cy="1680.03" r="11.4882" fill="#D9D9D9"/>
<circle cx="237.074" cy="1596.48" r="11.4882" fill="#D9D9D9"/>
<circle cx="278.849" cy="1673.76" r="11.4882" fill="#D9D9D9"/>
<circle cx="72.0621" cy="1634.07" r="5.22189" fill="#D9D9D9"/>
<circle cx="220.364" cy="1667.49" r="5.22189" fill="#D9D9D9"/>
<circle cx="209.92" cy="1492.04" r="15.6657" fill="#D9D9D9"/>
<circle cx="153.524" cy="1563.06" r="21.9319" fill="#D9D9D9"/>
<circle cx="324.802" cy="1521.28" r="3.13314" fill="#D9D9D9"/>
</g>
<g opacity="0.15">
<circle cx="176.5" cy="2470.5" r="176.5" fill="white"/>
<circle cx="189.033" cy="2319.02" r="5.22189" fill="#D9D9D9"/>
<circle cx="268.405" cy="2362.88" r="5.22189" fill="#D9D9D9"/>
<circle cx="101.305" cy="2377.51" r="5.22189" fill="#D9D9D9"/>
<circle cx="101.305" cy="2377.51" r="7.31065" fill="#D9D9D9"/>
<circle cx="280.938" cy="2423.46" r="7.31065" fill="#D9D9D9"/>
<circle cx="316.447" cy="2513.27" r="7.31065" fill="#D9D9D9"/>
<circle cx="63.7071" cy="2415.1" r="9.39941" fill="#D9D9D9"/>
<circle cx="105.482" cy="2578.03" r="11.4882" fill="#D9D9D9"/>
<circle cx="237.074" cy="2494.48" r="11.4882" fill="#D9D9D9"/>
<circle cx="278.849" cy="2571.76" r="11.4882" fill="#D9D9D9"/>
<circle cx="72.0621" cy="2532.07" r="5.22189" fill="#D9D9D9"/>
<circle cx="220.364" cy="2565.49" r="5.22189" fill="#D9D9D9"/>
<circle cx="209.92" cy="2390.04" r="15.6657" fill="#D9D9D9"/>
<circle cx="153.524" cy="2461.06" r="21.9319" fill="#D9D9D9"/>
<circle cx="324.802" cy="2419.28" r="3.13314" fill="#D9D9D9"/>
</g>
<g opacity="0.15">
<circle cx="176.5" cy="2918.5" r="176.5" fill="white"/>
<circle cx="189.033" cy="2767.02" r="5.22189" fill="#D9D9D9"/>
<circle cx="268.405" cy="2810.88" r="5.22189" fill="#D9D9D9"/>
<circle cx="101.305" cy="2825.51" r="5.22189" fill="#D9D9D9"/>
<circle cx="101.305" cy="2825.51" r="7.31065" fill="#D9D9D9"/>
<circle cx="280.938" cy="2871.46" r="7.31065" fill="#D9D9D9"/>
<circle cx="316.447" cy="2961.27" r="7.31065" fill="#D9D9D9"/>
<circle cx="63.7071" cy="2863.1" r="9.39941" fill="#D9D9D9"/>
<circle cx="105.482" cy="3026.03" r="11.4882" fill="#D9D9D9"/>
<circle cx="237.074" cy="2942.48" r="11.4882" fill="#D9D9D9"/>
<circle cx="278.849" cy="3019.76" r="11.4882" fill="#D9D9D9"/>
<circle cx="72.0621" cy="2980.07" r="5.22189" fill="#D9D9D9"/>
<circle cx="220.364" cy="3013.49" r="5.22189" fill="#D9D9D9"/>
<circle cx="209.92" cy="2838.04" r="15.6657" fill="#D9D9D9"/>
<circle cx="153.524" cy="2909.06" r="21.9319" fill="#D9D9D9"/>
<circle cx="324.802" cy="2867.28" r="3.13314" fill="#D9D9D9"/>
</g>
<g opacity="0.15">
<circle cx="177.5" cy="3367.5" r="176.5" fill="white"/>
<circle cx="190.033" cy="3216.02" r="5.22189" fill="#D9D9D9"/>
<circle cx="269.405" cy="3259.88" r="5.22189" fill="#D9D9D9"/>
<circle cx="102.305" cy="3274.51" r="5.22189" fill="#D9D9D9"/>
<circle cx="102.305" cy="3274.51" r="7.31065" fill="#D9D9D9"/>
<circle cx="281.938" cy="3320.46" r="7.31065" fill="#D9D9D9"/>
<circle cx="317.447" cy="3410.27" r="7.31065" fill="#D9D9D9"/>
<circle cx="64.7071" cy="3312.1" r="9.39941" fill="#D9D9D9"/>
<circle cx="106.482" cy="3475.03" r="11.4882" fill="#D9D9D9"/>
<circle cx="238.074" cy="3391.48" r="11.4882" fill="#D9D9D9"/>
<circle cx="279.849" cy="3468.76" r="11.4882" fill="#D9D9D9"/>
<circle cx="73.0621" cy="3429.07" r="5.22189" fill="#D9D9D9"/>
<circle cx="221.364" cy="3462.49" r="5.22189" fill="#D9D9D9"/>
<circle cx="210.92" cy="3287.04" r="15.6657" fill="#D9D9D9"/>
<circle cx="154.524" cy="3358.06" r="21.9319" fill="#D9D9D9"/>
<circle cx="325.802" cy="3316.28" r="3.13314" fill="#D9D9D9"/>
</g>
<path fill-rule="evenodd" clip-rule="evenodd" d="M140 846.164C219.416 828.934 278.902 758.253 278.902 673.677C278.902 589.102 219.416 518.42 140 501.19C152.116 498.562 164.695 497.177 177.598 497.177C275.076 497.177 354.098 576.199 354.098 673.677C354.098 771.155 275.076 850.177 177.598 850.177C164.695 850.177 152.116 848.793 140 846.164Z" fill="white"/>
<circle cx="269.503" cy="565.062" r="5.22189" fill="#D9D9D9"/>
<circle cx="286.213" cy="619.37" r="7.31065" fill="#D9D9D9"/>
<circle cx="317.544" cy="715.452" r="7.31065" fill="#D9D9D9"/>
<circle cx="279.947" cy="773.937" r="11.4882" fill="#D9D9D9"/>
<circle cx="325.899" cy="621.458" r="3.13314" fill="#D9D9D9"/>
<path fill-rule="evenodd" clip-rule="evenodd" d="M176 1301.17C176.348 1301.18 176.696 1301.18 177.044 1301.18C274.523 1301.18 353.544 1222.16 353.544 1124.68C353.544 1027.2 274.523 948.177 177.044 948.177C176.696 948.177 176.348 948.178 176 948.18V1301.17Z" fill="white"/>
<circle cx="189.577" cy="972.198" r="5.22189" fill="#D9D9D9"/>
<circle cx="268.95" cy="1016.06" r="5.22189" fill="#D9D9D9"/>
<circle cx="281.482" cy="1076.64" r="7.31065" fill="#D9D9D9"/>
<circle cx="316.991" cy="1166.45" r="7.31065" fill="#D9D9D9"/>
<circle cx="237.618" cy="1147.65" r="11.4882" fill="#D9D9D9"/>
<circle cx="279.393" cy="1224.94" r="11.4882" fill="#D9D9D9"/>
<circle cx="220.908" cy="1218.67" r="5.22189" fill="#D9D9D9"/>
<circle cx="210.465" cy="1043.22" r="15.6657" fill="#D9D9D9"/>
<circle cx="325.346" cy="1072.46" r="3.13314" fill="#D9D9D9"/>
<path fill-rule="evenodd" clip-rule="evenodd" d="M208.213 1747C291.26 1732.64 354.426 1660.24 354.426 1573.09C354.426 1485.94 291.26 1413.54 208.213 1399.18C125.166 1413.54 62 1485.94 62 1573.09C62 1660.24 125.166 1732.64 208.213 1747Z" fill="white"/>
<circle cx="190.458" cy="1420.61" r="5.22189" fill="#D9D9D9"/>
<circle cx="269.831" cy="1464.47" r="5.22189" fill="#D9D9D9"/>
<circle cx="102.731" cy="1479.09" r="5.22189" fill="#D9D9D9"/>
<circle cx="102.731" cy="1479.09" r="7.31065" fill="#D9D9D9"/>
<circle cx="282.364" cy="1525.05" r="7.31065" fill="#D9D9D9"/>
<circle cx="317.873" cy="1614.86" r="7.31065" fill="#D9D9D9"/>
<circle cx="238.5" cy="1596.06" r="11.4882" fill="#D9D9D9"/>
<circle cx="280.275" cy="1673.35" r="11.4882" fill="#D9D9D9"/>
<circle cx="221.79" cy="1667.08" r="5.22189" fill="#D9D9D9"/>
<circle cx="140.328" cy="1664.99" r="7.31065" fill="#D9D9D9"/>
<circle cx="211.346" cy="1491.63" r="15.6657" fill="#D9D9D9"/>
<circle cx="154.95" cy="1562.64" r="21.9319" fill="#D9D9D9"/>
<circle cx="326.228" cy="1520.87" r="3.13314" fill="#D9D9D9"/>
<circle cx="177.5" cy="2021.5" r="176.5" fill="white"/>
<circle cx="190.033" cy="1869.02" r="5.22189" fill="#D9D9D9"/>
<circle cx="269.405" cy="1912.88" r="5.22189" fill="#D9D9D9"/>
<circle cx="102.305" cy="1927.51" r="5.22189" fill="#D9D9D9"/>
<circle cx="102.305" cy="1927.51" r="7.31065" fill="#D9D9D9"/>
<circle cx="281.938" cy="1973.46" r="7.31065" fill="#D9D9D9"/>
<circle cx="317.447" cy="2063.27" r="7.31065" fill="#D9D9D9"/>
<circle cx="64.7071" cy="1965.1" r="9.39941" fill="#D9D9D9"/>
<circle cx="106.482" cy="2128.03" r="11.4882" fill="#D9D9D9"/>
<circle cx="238.074" cy="2044.48" r="11.4882" fill="#D9D9D9"/>
<circle cx="279.849" cy="2121.76" r="11.4882" fill="#D9D9D9"/>
<circle cx="73.0621" cy="2082.07" r="5.22189" fill="#D9D9D9"/>
<circle cx="221.364" cy="2115.49" r="5.22189" fill="#D9D9D9"/>
<circle cx="210.92" cy="1940.04" r="15.6657" fill="#D9D9D9"/>
<circle cx="154.524" cy="2011.06" r="21.9319" fill="#D9D9D9"/>
<circle cx="325.802" cy="1969.28" r="3.13314" fill="#D9D9D9"/>
<path fill-rule="evenodd" clip-rule="evenodd" d="M146.787 2296C229.834 2310.36 293 2382.76 293 2469.91C293 2557.06 229.834 2629.46 146.787 2643.82C63.7396 2629.46 0.574043 2557.06 0.574051 2469.91C0.574058 2382.76 63.7396 2310.36 146.787 2296Z" fill="white"/>
<circle cx="164.541" cy="2622.39" r="5.22189" transform="rotate(-180 164.541 2622.39)" fill="#D9D9D9"/>
<circle cx="85.1686" cy="2578.53" r="5.22189" transform="rotate(-180 85.1686 2578.53)" fill="#D9D9D9"/>
<circle cx="252.269" cy="2563.91" r="5.22189" transform="rotate(-180 252.269 2563.91)" fill="#D9D9D9"/>
<circle cx="252.269" cy="2563.91" r="7.31065" transform="rotate(-180 252.269 2563.91)" fill="#D9D9D9"/>
<circle cx="72.6361" cy="2517.95" r="7.31065" transform="rotate(-180 72.6361 2517.95)" fill="#D9D9D9"/>
<circle cx="37.1272" cy="2428.14" r="7.31065" transform="rotate(-180 37.1272 2428.14)" fill="#D9D9D9"/>
<circle cx="116.5" cy="2446.94" r="11.4882" transform="rotate(-180 116.5 2446.94)" fill="#D9D9D9"/>
<circle cx="74.7249" cy="2369.65" r="11.4882" transform="rotate(-180 74.7249 2369.65)" fill="#D9D9D9"/>
<circle cx="133.21" cy="2375.92" r="5.22189" transform="rotate(-180 133.21 2375.92)" fill="#D9D9D9"/>
<circle cx="214.672" cy="2378.01" r="7.31065" transform="rotate(-180 214.672 2378.01)" fill="#D9D9D9"/>
<circle cx="143.654" cy="2551.37" r="15.6657" transform="rotate(-180 143.654 2551.37)" fill="#D9D9D9"/>
<circle cx="200.05" cy="2480.36" r="21.9319" transform="rotate(-180 200.05 2480.36)" fill="#D9D9D9"/>
<circle cx="28.7723" cy="2522.13" r="3.13314" transform="rotate(-180 28.7723 2522.13)" fill="#D9D9D9"/>
<path fill-rule="evenodd" clip-rule="evenodd" d="M179 2741.83C178.652 2741.82 178.304 2741.82 177.956 2741.82C80.4774 2741.82 1.45568 2820.84 1.45567 2918.32C1.45566 3015.8 80.4774 3094.82 177.956 3094.82C178.304 3094.82 178.652 3094.82 179 3094.82L179 2741.83Z" fill="white"/>
<circle cx="165.423" cy="3070.8" r="5.22189" transform="rotate(-180 165.423 3070.8)" fill="#D9D9D9"/>
<circle cx="86.0503" cy="3026.94" r="5.22189" transform="rotate(-180 86.0503 3026.94)" fill="#D9D9D9"/>
<circle cx="73.5177" cy="2966.36" r="7.31065" transform="rotate(-180 73.5177 2966.36)" fill="#D9D9D9"/>
<circle cx="38.0088" cy="2876.55" r="7.31065" transform="rotate(-180 38.0088 2876.55)" fill="#D9D9D9"/>
<circle cx="117.382" cy="2895.35" r="11.4882" transform="rotate(-180 117.382 2895.35)" fill="#D9D9D9"/>
<circle cx="75.6064" cy="2818.06" r="11.4882" transform="rotate(-180 75.6064 2818.06)" fill="#D9D9D9"/>
<circle cx="134.092" cy="2824.33" r="5.22189" transform="rotate(-180 134.092 2824.33)" fill="#D9D9D9"/>
<circle cx="144.535" cy="2999.78" r="15.6657" transform="rotate(-180 144.535 2999.78)" fill="#D9D9D9"/>
<circle cx="29.6539" cy="2970.54" r="3.13314" transform="rotate(-180 29.6539 2970.54)" fill="#D9D9D9"/>
<path fill-rule="evenodd" clip-rule="evenodd" d="M177.402 3192.82C79.9241 3192.82 0.902413 3271.84 0.902405 3369.32C0.902396 3466.8 79.9241 3545.82 177.402 3545.82C190.305 3545.82 202.884 3544.44 215 3541.81C135.584 3524.58 76.0976 3453.9 76.0977 3369.32C76.0977 3284.75 135.584 3214.07 215 3196.84C202.884 3194.21 190.305 3192.82 177.402 3192.82Z" fill="white"/>
<circle cx="85.4971" cy="3477.94" r="5.22189" transform="rotate(-180 85.4971 3477.94)" fill="#D9D9D9"/>
<circle cx="68.787" cy="3423.63" r="7.31065" transform="rotate(-180 68.787 3423.63)" fill="#D9D9D9"/>
<circle cx="37.4557" cy="3327.55" r="7.31065" transform="rotate(-180 37.4557 3327.55)" fill="#D9D9D9"/>
<circle cx="75.0533" cy="3269.06" r="11.4882" transform="rotate(-180 75.0533 3269.06)" fill="#D9D9D9"/>
<circle cx="29.1006" cy="3421.54" r="3.13314" transform="rotate(-180 29.1006 3421.54)" fill="#D9D9D9"/>
<g opacity="0.15">
<circle cx="177.5" cy="3816.5" r="176.5" fill="white"/>
<circle cx="190.033" cy="3665.02" r="5.22189" fill="#D9D9D9"/>
<circle cx="269.405" cy="3708.88" r="5.22189" fill="#D9D9D9"/>
<circle cx="102.305" cy="3723.51" r="5.22189" fill="#D9D9D9"/>
<circle cx="102.305" cy="3723.51" r="7.31065" fill="#D9D9D9"/>
<circle cx="281.938" cy="3769.46" r="7.31065" fill="#D9D9D9"/>
<circle cx="317.447" cy="3859.27" r="7.31065" fill="#D9D9D9"/>
<circle cx="64.7071" cy="3761.1" r="9.39941" fill="#D9D9D9"/>
<circle cx="106.482" cy="3924.03" r="11.4882" fill="#D9D9D9"/>
<circle cx="238.074" cy="3840.48" r="11.4882" fill="#D9D9D9"/>
<circle cx="279.849" cy="3917.76" r="11.4882" fill="#D9D9D9"/>
<circle cx="73.0621" cy="3878.07" r="5.22189" fill="#D9D9D9"/>
<circle cx="221.364" cy="3911.49" r="5.22189" fill="#D9D9D9"/>
<circle cx="210.92" cy="3736.04" r="15.6657" fill="#D9D9D9"/>
<circle cx="154.524" cy="3807.06" r="21.9319" fill="#D9D9D9"/>
<circle cx="325.802" cy="3765.28" r="3.13314" fill="#D9D9D9"/>
</g>
<g opacity="0.15">
<circle cx="177.5" cy="224.5" r="176.5" fill="white"/>
<circle cx="190.033" cy="73.0207" r="5.22189" fill="#D9D9D9"/>
<circle cx="269.405" cy="116.884" r="5.22189" fill="#D9D9D9"/>
<circle cx="102.305" cy="131.506" r="5.22189" fill="#D9D9D9"/>
<circle cx="102.305" cy="131.506" r="7.31065" fill="#D9D9D9"/>
<circle cx="281.938" cy="177.459" r="7.31065" fill="#D9D9D9"/>
<circle cx="317.447" cy="267.275" r="7.31065" fill="#D9D9D9"/>
<circle cx="64.7071" cy="169.104" r="9.39941" fill="#D9D9D9"/>
<circle cx="106.482" cy="332.027" r="11.4882" fill="#D9D9D9"/>
<circle cx="238.074" cy="248.476" r="11.4882" fill="#D9D9D9"/>
<circle cx="279.849" cy="325.76" r="11.4882" fill="#D9D9D9"/>
<circle cx="73.0621" cy="286.074" r="5.22189" fill="#D9D9D9"/>
<circle cx="221.364" cy="319.494" r="5.22189" fill="#D9D9D9"/>
<circle cx="210.92" cy="144.038" r="15.6657" fill="#D9D9D9"/>
<circle cx="154.524" cy="215.056" r="21.9319" fill="#D9D9D9"/>
<circle cx="325.802" cy="173.281" r="3.13314" fill="#D9D9D9"/>
</g>
</svg>
